<svg xmlns="http://www.w3.org/2000/svg" xmlns:xlink="http://www.w3.org/1999/xlink" width="500" zoomAndPan="magnify" viewBox="0 0 375 374.999991" height="500" preserveAspectRatio="xMidYMid meet" version="1.0"><defs><clipPath id="id1"><path d="M 9.203125 80 L 170 80 L 170 375 L 9.203125 375 Z M 9.203125 80 " clip-rule="nonzero"/></clipPath><clipPath id="id2"><path d="M 205 80 L 365.453125 80 L 365.453125 375 L 205 375 Z M 205 80 " clip-rule="nonzero"/></clipPath><clipPath id="id3"><path d="M 9.203125 111 L 108 111 L 108 277 L 9.203125 277 Z M 9.203125 111 " clip-rule="nonzero"/></clipPath><clipPath id="id4"><path d="M 267 111 L 365.453125 111 L 365.453125 277 L 267 277 Z M 267 111 " clip-rule="nonzero"/></clipPath></defs><g clip-path="url(#id1)"><path fill="#f4b78b" d="M 154.890625 246.089844 L 126.21875 203.125 L 126.21875 141.75 C 126.21875 132.664062 121.296875 124.753906 113.933594 120.511719 C 112.039062 119.40625 109.949219 118.542969 107.789062 117.992188 C 105.824219 117.441406 103.808594 117.203125 101.648438 117.203125 L 101.648438 104.925781 C 101.648438 98.167969 98.890625 92.027344 94.472656 87.546875 C 89.988281 83.132812 83.84375 80.378906 77.078125 80.378906 C 70.3125 80.378906 64.792969 85.890625 64.792969 92.652344 L 64.792969 107.132812 C 64.480469 106.699219 64.121094 106.339844 63.761719 105.957031 C 59.277344 101.546875 53.132812 98.789062 46.367188 98.789062 C 39.601562 98.789062 34.082031 104.304688 34.082031 111.0625 L 34.082031 119.40625 C 33.769531 118.976562 33.410156 118.617188 33.050781 118.234375 C 28.5625 113.820312 22.421875 111.0625 15.65625 111.0625 C 12.273438 111.0625 9.511719 113.820312 9.511719 117.203125 L 9.511719 232.78125 C 9.511719 237.480469 10.855469 242.085938 13.425781 246.039062 L 58.722656 316.429688 C 62.515625 322.328125 69.015625 325.875 76.023438 325.875 L 77.078125 325.875 L 77.078125 375 L 150.785156 375 L 150.785156 325.492188 C 158.585938 324.03125 164.992188 318.179688 166.957031 310.292969 L 167.4375 308.375 C 172.476562 288.261719 168.78125 266.945312 157.289062 249.660156 L 154.890625 246.089844 " fill-opacity="1" fill-rule="nonzero"/></g><g clip-path="url(#id2)"><path fill="#f4b78b" d="M 359.625 111.0625 C 352.859375 111.0625 346.71875 113.820312 342.230469 118.234375 C 341.871094 118.617188 341.511719 118.976562 341.199219 119.40625 L 341.199219 111.0625 C 341.199219 104.304688 335.679688 98.789062 328.914062 98.789062 C 322.148438 98.789062 316.003906 101.546875 311.519531 105.957031 C 311.160156 106.339844 310.800781 106.699219 310.488281 107.132812 L 310.488281 92.652344 C 310.488281 85.890625 304.96875 80.378906 298.203125 80.378906 C 291.4375 80.378906 285.292969 83.132812 280.808594 87.546875 C 276.390625 92.027344 273.632812 98.167969 273.632812 104.925781 L 273.632812 117.203125 C 271.472656 117.203125 269.457031 117.441406 267.492188 117.992188 C 265.332031 118.542969 263.242188 119.40625 261.347656 120.511719 C 253.984375 124.753906 249.0625 132.664062 249.0625 141.75 L 249.0625 203.125 L 220.390625 246.089844 L 217.992188 249.660156 C 206.5 266.945312 202.804688 288.261719 207.84375 308.375 L 208.324219 310.292969 C 210.289062 318.179688 216.695312 324.03125 224.496094 325.492188 L 224.496094 375 L 298.203125 375 L 298.203125 325.875 L 299.257812 325.875 C 306.265625 325.875 312.765625 322.328125 316.558594 316.429688 L 361.855469 246.039062 C 364.425781 242.085938 365.769531 237.480469 365.769531 232.78125 L 365.769531 117.203125 C 365.769531 113.820312 363.007812 111.0625 359.625 111.0625 " fill-opacity="1" fill-rule="nonzero"/></g><path fill="#f49c63" d="M 113.933594 120.511719 L 113.933594 215.402344 L 101.648438 215.402344 L 101.648438 117.203125 C 103.808594 117.203125 105.824219 117.441406 107.789062 117.992188 C 109.949219 118.542969 112.039062 119.40625 113.933594 120.511719 " fill-opacity="1" fill-rule="nonzero"/><path fill="#f49c63" d="M 273.632812 117.203125 L 273.632812 215.402344 L 261.347656 215.402344 L 261.347656 120.511719 C 263.242188 119.40625 265.332031 118.542969 267.492188 117.992188 C 269.457031 117.441406 271.472656 117.203125 273.632812 117.203125 " fill-opacity="1" fill-rule="nonzero"/><path fill="#f49c63" d="M 310.488281 101.785156 L 310.488281 107.132812 C 306.671875 111.496094 304.34375 117.128906 304.34375 123.339844 L 304.34375 215.402344 L 292.058594 215.402344 L 292.058594 123.339844 C 292.058594 114.0625 301.34375 105.910156 310.488281 101.785156 " fill-opacity="1" fill-rule="nonzero"/><path fill="#f49c63" d="M 83.222656 123.339844 L 83.222656 215.402344 L 70.9375 215.402344 L 70.9375 123.339844 C 70.9375 117.128906 68.609375 111.496094 64.792969 107.132812 L 64.792969 99.582031 C 75.421875 102.289062 83.222656 111.925781 83.222656 123.339844 " fill-opacity="1" fill-rule="nonzero"/><g clip-path="url(#id3)"><path fill="#f49c63" d="M 64.792969 233.8125 C 62.707031 233.8125 60.691406 233.933594 58.652344 234.246094 L 58.652344 221.539062 C 58.652344 217.679688 58.148438 213.9375 57.1875 210.367188 C 56.132812 206.507812 54.550781 202.816406 52.507812 199.433594 L 52.507812 135.613281 C 52.507812 128.851562 49.75 122.714844 45.335938 118.234375 C 42.265625 115.234375 38.378906 112.957031 34.082031 111.855469 L 34.082031 119.40625 C 37.898438 123.769531 40.226562 129.40625 40.226562 135.613281 L 40.226562 186.320312 C 33.289062 181.40625 24.796875 178.578125 15.65625 178.578125 L 9.511719 178.578125 L 9.511719 190.851562 L 15.65625 190.851562 C 25.660156 190.851562 34.632812 195.695312 40.226562 203.125 C 42.9375 206.699219 44.832031 210.871094 45.742188 215.402344 C 46.175781 217.367188 46.367188 219.453125 46.367188 221.539062 L 46.367188 239.953125 L 52.269531 248.773438 C 56.132812 247.070312 60.308594 246.089844 64.792969 246.089844 C 81.757812 246.089844 95.503906 259.828125 95.503906 276.777344 L 107.789062 276.777344 C 107.789062 253.089844 88.5 233.8125 64.792969 233.8125 " fill-opacity="1" fill-rule="nonzero"/></g><g clip-path="url(#id4)"><path fill="#f49c63" d="M 359.625 178.578125 C 353.050781 178.578125 346.789062 180.039062 341.199219 182.75 C 339.039062 183.730469 336.953125 184.953125 335.054688 186.320312 L 335.054688 135.613281 C 335.054688 129.40625 337.382812 123.769531 341.199219 119.40625 L 341.199219 111.855469 C 330.570312 114.566406 322.773438 124.203125 322.773438 135.613281 L 322.773438 199.433594 C 320.730469 202.816406 319.148438 206.507812 318.09375 210.367188 C 317.132812 213.9375 316.628906 217.679688 316.628906 221.539062 L 316.628906 234.246094 C 314.589844 233.933594 312.574219 233.8125 310.488281 233.8125 C 286.78125 233.8125 267.492188 253.089844 267.492188 276.777344 L 279.777344 276.777344 C 279.777344 259.828125 293.523438 246.089844 310.488281 246.089844 C 314.972656 246.089844 319.148438 247.070312 323.011719 248.773438 L 328.914062 239.953125 L 328.914062 221.539062 C 328.914062 219.453125 329.105469 217.367188 329.539062 215.402344 C 329.875 213.675781 330.425781 211.996094 331.050781 210.390625 C 331.121094 210.175781 331.21875 209.933594 331.3125 209.742188 C 331.960938 208.183594 332.730469 206.699219 333.617188 205.261719 C 333.738281 205.070312 333.878906 204.875 334 204.683594 C 335.96875 201.734375 338.367188 199.097656 341.199219 196.988281 C 346.308594 193.128906 352.691406 190.851562 359.625 190.851562 L 365.769531 190.851562 L 365.769531 178.578125 L 359.625 178.578125 " fill-opacity="1" fill-rule="nonzero"/></g><path fill="#ffd3ed" d="M 187.640625 36.433594 L 175.691406 27.5625 C 138.742188 0.0859375 84.230469 12.671875 64.984375 53.117188 C 52.871094 78.554688 58.460938 108.355469 79.046875 128.351562 L 187.640625 233.839844 L 296.234375 128.351562 C 316.820312 108.355469 322.410156 78.554688 310.296875 53.117188 C 291.050781 12.671875 236.539062 0.0859375 199.589844 27.5625 L 187.640625 36.433594 " fill-opacity="1" fill-rule="nonzero"/></svg>